<svg xmlns="http://www.w3.org/2000/svg"  viewBox="0 0 100 100" width="100px" height="100px"><path fill="#f5905f" d="M69,82H31c-7.18,0-13-5.82-13-13V31c0-7.18,5.82-13,13-13h38c7.18,0,13,5.82,13,13v38	C82,76.18,76.18,82,69,82z"/><path fill="#fff" d="M45.5,36.5c0-1.105,0.895-2,2-2h10c2.093,0,3.582,1.712,4.081,5.126C62,42.5,62,42.5,62,42.5h2	L64.5,31c0,0-4,0.5-8,0.5h-23v2c0,0,0,0,2.755,0.534C38.189,34.408,38.5,35.5,38.5,37v26.5c0,2-0.868,2.682-2.745,3.281	C33.5,67.5,33.5,67.5,33.5,67.5l-0.018,2H65l1.5-12h-2l-2.115,5.305C60.763,66.466,58.616,66.5,56,66.5h-6.641	c-2.616,0-3.871-1.046-3.871-3.295L45.5,52.5c0,0,5.5,0,7.5,0c1.465,0.105,2.492,0.469,3,2.5c0.5,2,0.5,2,0.5,2h2V43.5h-2	c0,0,0,0-0.403,2.722C55.831,48.014,54,48.5,53,48.5c-2.5,0-7.5,0-7.5,0V36.5z"/><path fill="#1f212b" d="M69,83H31c-7.72,0-14-6.28-14-14V31c0-7.72,6.28-14,14-14h38c7.72,0,14,6.28,14,14v38	C83,76.72,76.72,83,69,83z M31,19c-6.617,0-12,5.383-12,12v38c0,6.617,5.383,12,12,12h38c6.617,0,12-5.383,12-12V31	c0-6.617-5.383-12-12-12H31z"/><path fill="#1f212b" d="M67.5,78h-35C26.71,78,22,73.29,22,67.5v-35C22,26.71,26.71,22,32.5,22h34c0.276,0,0.5,0.224,0.5,0.5	S66.776,23,66.5,23h-34c-5.238,0-9.5,4.262-9.5,9.5v35c0,5.238,4.262,9.5,9.5,9.5h35c5.238,0,9.5-4.262,9.5-9.5v-19	c0-0.276,0.224-0.5,0.5-0.5s0.5,0.224,0.5,0.5v19C78,73.29,73.29,78,67.5,78z"/><path fill="#1f212b" d="M77.5,46c-0.276,0-0.5-0.224-0.5-0.5v-4c0-0.276,0.224-0.5,0.5-0.5s0.5,0.224,0.5,0.5v4	C78,45.776,77.776,46,77.5,46z"/><path fill="#1f212b" d="M77.5,40c-0.276,0-0.5-0.224-0.5-0.5v-2c0-0.276,0.224-0.5,0.5-0.5s0.5,0.224,0.5,0.5v2	C78,39.776,77.776,40,77.5,40z"/><path fill="#1f212b" d="M65,70H33.482c-0.133,0-0.261-0.054-0.355-0.148c-0.094-0.095-0.146-0.223-0.145-0.355l0.018-2	c0.002-0.217,0.143-0.407,0.348-0.473l2.255-0.719C37.485,65.705,38,65.102,38,63.5V37c0-1.436-0.275-2.172-1.839-2.475	l-2.756-0.534C33.17,33.945,33,33.739,33,33.5v-2c0-0.276,0.224-0.5,0.5-0.5h23c3.921,0,7.898-0.491,7.938-0.496	c0.145-0.021,0.293,0.029,0.401,0.129s0.167,0.242,0.161,0.389l-0.5,11.5C64.488,42.789,64.268,43,64,43h-2	c-0.248,0-0.459-0.183-0.495-0.428l-0.419-2.874C60.773,37.555,59.897,35,57.5,35h-10c-0.827,0-1.5,0.673-1.5,1.5V48h7	c0.095,0,2.332-0.021,2.602-1.851l0.403-2.723C56.042,43.182,56.252,43,56.5,43h2c0.276,0,0.5,0.224,0.5,0.5V57	c0,0.276-0.224,0.5-0.5,0.5h-2c-0.229,0-0.429-0.156-0.485-0.379l-0.5-2c-0.422-1.689-1.128-2.02-2.551-2.122L46,53v10.206	C46,65.164,46.996,66,49.359,66H56c2.567,0,4.422,0,5.928-3.397l2.108-5.288C64.111,57.125,64.295,57,64.5,57h2	c0.144,0,0.28,0.062,0.375,0.169s0.139,0.251,0.121,0.394l-1.5,12C65.465,69.812,65.252,70,65,70z M33.987,69h30.572l1.375-11	h-1.095l-1.99,4.99C61.073,67,58.609,67,56,67h-6.641C46.458,67,45,65.724,45,63.205V52.499C45,52.224,45.224,52,45.5,52H53	c1.752,0.125,2.928,0.649,3.485,2.879l0.406,1.621H58V44h-1.069l-0.34,2.296C56.316,48.153,54.537,49,53,49h-7.5	c-0.276,0-0.5-0.224-0.5-0.5v-12c0-1.379,1.122-2.5,2.5-2.5h10c1.406,0,3.871,0.722,4.575,5.554L62.432,42h1.089l0.454-10.437	C62.709,31.7,59.589,32,56.5,32H34v1.088l2.351,0.455C38.679,33.994,39,35.471,39,37v26.5c0,2.317-1.134,3.133-3.093,3.758	l-1.911,0.608L33.987,69z"/></svg>